<svg width="205" height="178" viewBox="0 0 205 178" fill="none" xmlns="http://www.w3.org/2000/svg">
<path d="M98.0226 22.9307C102.244 18.7093 102.244 11.865 98.0226 7.64351C93.8012 3.42206 86.9568 3.42207 82.7354 7.64351C78.5139 11.865 78.514 18.7093 82.7354 22.9307C86.9568 27.1522 93.8012 27.1522 98.0226 22.9307Z" fill="#FFD482"/>
<path d="M170.612 100.044C169.527 105.344 167.593 110.422 164.963 115.166C147.378 146.928 99.1865 164.095 74.7567 138.038C71.2508 134.295 68.2319 130.414 65.672 126.435C57.2969 113.385 53.944 99.3341 54.9874 86.0201C55.8361 75.1964 59.5924 64.8735 65.9085 55.9836C68.4127 52.4499 71.3343 49.1388 74.6454 46.1199C120.138 4.46668 178.917 59.253 170.612 100.044Z" fill="#DBE0FF"/>
<path d="M164.963 115.167C147.378 146.928 99.1862 164.096 74.7563 138.038C71.2504 134.296 68.2315 130.415 65.6716 126.436C65.616 125.601 65.5743 124.738 65.5325 123.848C65.0873 115.487 65.0595 111.118 74.1024 110.492C76.3145 110.339 79.7786 110.047 83.9662 109.685C84.7175 108.461 87.2217 104.287 89.225 99.9746C87.2356 99.7242 66.2281 96.9418 59.2164 90.8204C57.7973 89.5822 56.3644 87.9127 54.9871 86.0068C49.1996 78.049 44.1355 66.0149 43.426 64.1924C42.6747 62.2725 42.6052 60.7561 43.0365 57.918C42.7165 58.2936 39.8645 54.5513 40.2818 53.2296C40.9775 51.0732 47.7666 46.5517 51.5507 46.1065C52.2185 46.0231 54.1106 49.3203 53.6793 49.4037C56.0444 49.7098 60.7606 50.8506 61.8319 52.0888C62.3049 52.6314 63.9883 54.1339 65.8942 55.9842C68.9827 58.9614 72.6417 62.8429 72.6973 65.0132C72.7947 68.533 73.3234 68.4913 74.4085 68.5887C75.5076 68.6861 76.4119 69.2147 76.3145 70.4946C76.2171 71.7885 76.4119 72.7902 78.61 72.4424C80.8081 72.1085 82.2828 72.4841 82.7141 74.3066C83.1454 76.1152 89.1555 76.1708 91.4371 76.2126C93.7187 76.2543 105.321 77.1586 106.685 77.9794C107.506 70.1608 110.636 57.7789 110.636 57.7789C110.636 57.7789 101.092 54.6069 101.231 53.0766C101.315 52.214 108.953 49.2507 113.933 47.4143C114.003 47.3865 117.008 47.7482 118.622 47.0804C118.622 47.0804 115.964 54.3426 124.492 57.292C124.492 57.292 124.604 58.711 125.216 58.7945C125.633 58.8501 126.259 58.5162 126.538 57.1946C126.663 56.5963 126.718 55.7894 126.663 54.7321C126.663 54.7321 126.718 54.7321 126.83 54.7321H126.844C128.249 54.746 129.57 54.8851 130.67 55.1217C132.2 55.4555 133.271 56.012 133.494 56.7494C133.841 57.8763 132.993 59.1979 129.584 59.7127C128.304 63.5942 128.499 66.9888 129.723 67.1696C131.073 67.3783 131.588 66.9331 132.242 66.4601C132.895 65.9871 133.41 68.3939 130.67 70.2164C128.527 71.6354 125.842 72.178 123.741 70.7868C123.213 74.557 122.642 78.8002 122.211 82.6678C123.185 82.6817 137.486 91.7942 141.354 93.8393C143.858 95.1749 148.867 98.2356 152.665 102.618C160.929 102.159 163.335 102.785 164.226 109.226C164.434 110.451 164.685 112.537 164.963 115.167Z" fill="white"/>
<path d="M113.069 54.2589C112.777 54.1337 112.652 53.7859 112.777 53.5076L113.375 52.172C113.5 51.8799 113.848 51.7547 114.126 51.8799C114.419 52.0051 114.544 52.3529 114.419 52.6311L113.82 53.9667C113.709 54.2589 113.361 54.398 113.069 54.2589Z" fill="#4C4D4E"/>
<path d="M116.575 55.8451C116.283 55.7199 116.158 55.372 116.283 55.0938L116.881 53.7582C117.006 53.4661 117.354 53.3409 117.632 53.4661C117.924 53.5913 118.05 53.9391 117.924 54.2173L117.326 55.5529C117.201 55.8451 116.867 55.9703 116.575 55.8451Z" fill="#4C4D4E"/>
<path d="M92.314 18.2258C92.0914 18.7962 91.7715 19.2135 91.3819 19.4779C90.9924 19.7422 90.4915 19.8396 89.8933 19.7839L89.2951 21.2865C89.2812 21.3282 89.2533 21.356 89.2116 21.3838C89.1699 21.3977 89.1281 21.3977 89.0864 21.3838L87.1108 20.5908C87.0691 20.5769 87.0413 20.5491 87.0135 20.5074C86.9996 20.4656 86.9996 20.4239 87.0135 20.3822L87.5421 19.0466C87.1804 18.8796 86.8465 18.7266 86.5683 18.5597C86.5265 18.5457 86.5126 18.504 86.4987 18.4623C86.4848 18.4205 86.4848 18.3788 86.4987 18.3371L87.2917 16.8067C87.3195 16.765 87.3474 16.7372 87.403 16.7232C87.4586 16.7093 87.5004 16.7232 87.5421 16.7511C87.6534 16.8206 87.7647 16.9041 87.8899 16.9737C88.0151 17.0432 88.1682 17.1406 88.3629 17.238C88.5577 17.3493 88.7386 17.4328 88.9194 17.5023C89.1142 17.5858 89.2812 17.6275 89.4342 17.6275C89.5872 17.6275 89.7124 17.5997 89.7959 17.5441C89.8794 17.4884 89.9489 17.4328 89.9907 17.3771C90.0324 17.3215 90.0742 17.2658 90.0881 17.2241C90.1159 17.1684 90.1159 17.0989 90.1298 17.0293C90.1298 16.9598 90.1298 16.8624 90.102 16.7372C90.0741 16.6119 90.0046 16.4728 89.8933 16.3198C89.7681 16.1668 89.615 16.0137 89.4064 15.8746C89.1699 15.7077 88.9751 15.5129 88.7942 15.2764C88.6134 15.0399 88.4742 14.7755 88.349 14.4834C88.2377 14.1912 88.1821 13.8573 88.1821 13.4956C88.1821 13.1339 88.2656 12.7583 88.4047 12.3826C88.6134 11.854 88.9194 11.4644 89.3368 11.214C89.7403 10.9636 90.2411 10.8523 90.8115 10.8801L91.4236 9.33586C91.4375 9.29412 91.4654 9.2663 91.521 9.23848C91.5628 9.22456 91.6045 9.21065 91.6462 9.23848L93.6218 10.0315C93.6635 10.0454 93.6913 10.0871 93.7191 10.1289C93.7331 10.1706 93.7331 10.2262 93.7191 10.268L93.1905 11.6036C93.5383 11.7566 93.8722 11.9235 94.2061 12.1044C94.2478 12.1183 94.2617 12.16 94.2895 12.2018C94.3035 12.2435 94.3035 12.2852 94.2756 12.327L93.4826 13.8573C93.4548 13.8991 93.427 13.9269 93.3713 13.9408C93.3157 13.9547 93.274 13.9547 93.2322 13.9269C92.7314 13.593 92.2584 13.3287 91.8132 13.1478C91.6323 13.0643 91.4654 13.0226 91.3123 13.0226C91.1593 13.0226 91.0341 13.0504 90.9506 13.1061C90.8671 13.1617 90.7976 13.2174 90.7419 13.273C90.7002 13.3287 90.6585 13.3843 90.6446 13.426C90.6306 13.4817 90.6167 13.5374 90.6028 13.6069C90.6028 13.6765 90.6028 13.7739 90.6306 13.8991C90.6585 14.0243 90.728 14.1634 90.8532 14.3164C90.9784 14.4695 91.1315 14.6225 91.3402 14.7616C91.5628 14.9286 91.7714 15.1233 91.9523 15.3599C92.1332 15.5964 92.2862 15.8607 92.3975 16.1528C92.5088 16.445 92.5644 16.7789 92.5644 17.1406C92.5366 17.4884 92.4531 17.8501 92.314 18.2258Z" fill="#4C4D4E"/>
<path d="M89.1407 21.5923C89.0989 21.5923 89.0433 21.5784 89.0016 21.5645L87.026 20.7715C86.9286 20.7298 86.8591 20.6602 86.8173 20.5767C86.7756 20.4793 86.7756 20.382 86.8173 20.2846L87.2765 19.1299C86.9843 18.9907 86.706 18.8516 86.4695 18.7264C86.3861 18.6847 86.3304 18.6012 86.3026 18.5177C86.2748 18.4342 86.2748 18.3369 86.3165 18.2395C86.3165 18.2395 86.3165 18.2256 86.3304 18.2256L87.1234 16.6952C87.1791 16.5978 87.2625 16.5283 87.3738 16.5004C87.4851 16.4726 87.5825 16.5004 87.6799 16.5561C87.7912 16.6257 87.9025 16.7091 88.0138 16.7787C88.1251 16.8483 88.2781 16.9317 88.4729 17.043C88.6538 17.1404 88.8346 17.2239 89.0016 17.2934C89.1685 17.363 89.3215 17.4047 89.4468 17.4047C89.5859 17.4047 89.6554 17.3769 89.6833 17.3491C89.7528 17.3074 89.8085 17.2517 89.8363 17.2239C89.878 17.1821 89.8919 17.1404 89.9059 17.1265C89.9198 17.0987 89.9337 17.0569 89.9337 17.0013C89.9337 16.9595 89.9337 16.89 89.9059 16.7509C89.8919 16.6952 89.8502 16.5839 89.725 16.417C89.6137 16.2778 89.4746 16.1387 89.2937 16.0135C89.0433 15.8466 88.8207 15.624 88.6259 15.3736C88.4312 15.1231 88.2781 14.8449 88.1529 14.5249C88.0277 14.2049 87.9582 13.8432 87.9721 13.4537C87.9721 13.0641 88.0555 12.6607 88.2225 12.2711C88.4451 11.7007 88.7929 11.2834 89.2381 11.0051C89.6415 10.7547 90.1285 10.6295 90.6849 10.6295L91.2414 9.22436C91.2832 9.12697 91.3388 9.05741 91.4362 9.01568C91.5336 8.97394 91.631 8.96003 91.7284 9.00176L93.7039 9.79476C93.8013 9.8365 93.8708 9.90606 93.9126 10.0034C93.9543 10.1008 93.9543 10.1982 93.9126 10.2956L93.4535 11.4503C93.7456 11.5894 94.0239 11.7286 94.3021 11.8677C94.3856 11.9094 94.4412 11.9929 94.483 12.0764C94.5247 12.1737 94.5108 12.285 94.4552 12.3824L93.6621 13.9128C93.6065 14.0102 93.523 14.0658 93.4256 14.1075C93.3144 14.1354 93.203 14.1215 93.1057 14.0519C92.6187 13.7319 92.1596 13.4676 91.7284 13.2867C91.5614 13.2172 91.4223 13.1754 91.2971 13.1754C91.1858 13.1754 91.1023 13.1893 91.0467 13.2311C90.9493 13.2867 90.9075 13.3285 90.8797 13.3563C90.8519 13.3841 90.8241 13.4258 90.8101 13.4537C90.7962 13.4676 90.7962 13.5093 90.7823 13.5789C90.7823 13.6206 90.7823 13.6902 90.8101 13.8154C90.8241 13.9128 90.8936 14.0241 90.991 14.1493C91.1023 14.2884 91.2414 14.4275 91.4223 14.5527C91.6588 14.7336 91.8814 14.9423 92.0762 15.1927C92.2709 15.4431 92.424 15.7214 92.5492 16.0413C92.6744 16.3613 92.73 16.723 92.73 17.1126C92.73 17.5021 92.6466 17.8917 92.4796 18.2951C92.2292 18.9073 91.8953 19.3525 91.4779 19.6446C91.0884 19.9089 90.5876 20.0202 90.0032 19.9924L89.4607 21.3558C89.4189 21.4532 89.3494 21.5228 89.2659 21.5645C89.2381 21.5784 89.1824 21.5923 89.1407 21.5923ZM87.2069 20.3959L89.1129 21.161L89.6972 19.7003C89.725 19.6168 89.8224 19.5611 89.9059 19.575C90.4623 19.6307 90.9215 19.5333 91.2693 19.3107C91.6171 19.0742 91.9092 18.6847 92.1179 18.156C92.257 17.8082 92.3266 17.4604 92.3405 17.1265C92.3405 16.7926 92.2988 16.4865 92.1875 16.2083C92.0762 15.93 91.937 15.6796 91.7701 15.4709C91.6031 15.2483 91.4084 15.0675 91.1997 14.9145C90.991 14.7614 90.8101 14.5945 90.671 14.4275C90.5319 14.2467 90.4484 14.0797 90.4206 13.9267C90.3928 13.7876 90.3789 13.6624 90.3789 13.5789C90.3789 13.4815 90.4067 13.398 90.4345 13.3285C90.4623 13.245 90.518 13.1754 90.5736 13.1059C90.6293 13.0363 90.7128 12.9807 90.8241 12.9111C90.9493 12.8276 91.1162 12.7859 91.311 12.7859C91.4919 12.7859 91.6866 12.8276 91.8953 12.925C92.3405 13.1059 92.8135 13.3702 93.3143 13.7041L94.0656 12.2433C93.7595 12.0764 93.4256 11.9233 93.0918 11.7703C92.9944 11.7286 92.9387 11.6033 92.9805 11.506L93.4952 10.1982L91.5753 9.43304L90.9771 10.9495C90.9493 11.0329 90.8658 11.0886 90.7684 11.0747C90.2398 11.0469 89.7806 11.1582 89.4189 11.3808C89.0433 11.6033 88.7651 11.9651 88.5703 12.4381C88.4312 12.7859 88.3616 13.1337 88.3616 13.4676C88.3616 13.8015 88.4033 14.1075 88.5146 14.3858C88.6259 14.664 88.765 14.9145 88.932 15.1371C89.0989 15.3596 89.2937 15.5405 89.5024 15.6935C89.725 15.8466 89.9059 16.0135 90.0311 16.1805C90.1702 16.3613 90.2537 16.5283 90.2815 16.6813C90.3093 16.8204 90.3232 16.9317 90.3093 17.0291C90.3093 17.1265 90.2815 17.21 90.2537 17.2934C90.2258 17.363 90.1841 17.4326 90.1145 17.5021C90.0589 17.5717 89.9754 17.6412 89.878 17.7108C89.7528 17.7943 89.5859 17.836 89.405 17.836C89.2242 17.836 89.0294 17.7804 88.8068 17.6969C88.6259 17.6273 88.4312 17.53 88.2364 17.4187C88.0416 17.3074 87.8747 17.2239 87.7495 17.1404C87.6382 17.0708 87.5269 17.0013 87.4295 16.9317L86.6782 18.3925C86.9426 18.5455 87.2625 18.6986 87.6103 18.8516C87.7077 18.8933 87.7634 19.0186 87.7216 19.1159L87.2069 20.3959Z" fill="#4C4D4E"/>
<path d="M176.01 48.0539C176.177 48.3182 176.247 48.5686 176.233 48.8051C176.219 49.0416 176.108 49.2781 175.913 49.5007L176.344 50.1964C176.358 50.2103 176.358 50.2381 176.358 50.2659C176.358 50.2937 176.344 50.3077 176.316 50.3216L175.398 50.892C175.384 50.9059 175.356 50.9059 175.328 50.9059C175.301 50.9059 175.287 50.892 175.273 50.8641L174.897 50.252C174.716 50.3494 174.563 50.4329 174.41 50.5024C174.396 50.5163 174.369 50.5163 174.355 50.5024C174.327 50.4885 174.313 50.4746 174.299 50.4607L173.923 49.6816C173.909 49.6538 173.909 49.6399 173.923 49.612C173.937 49.5842 173.951 49.5703 173.979 49.5703C174.049 49.5425 174.104 49.5286 174.174 49.5007C174.243 49.4729 174.327 49.4312 174.424 49.3894C174.522 49.3477 174.619 49.2921 174.702 49.2503C174.786 49.1947 174.855 49.139 174.911 49.0834C174.953 49.0277 174.981 48.9582 174.981 48.9164C174.981 48.8608 174.981 48.819 174.967 48.7912C174.953 48.7495 174.953 48.7217 174.939 48.7078C174.925 48.6799 174.897 48.6521 174.869 48.6382C174.842 48.6104 174.8 48.5825 174.744 48.5547C174.689 48.5269 174.605 48.513 174.508 48.513C174.41 48.513 174.299 48.5408 174.188 48.5686C174.049 48.6104 173.909 48.6382 173.756 48.6382C173.603 48.6382 173.45 48.6243 173.297 48.5825C173.144 48.5408 172.991 48.4712 172.852 48.346C172.699 48.2347 172.574 48.0956 172.476 47.9148C172.323 47.6782 172.268 47.4278 172.282 47.1913C172.31 46.9548 172.407 46.7183 172.588 46.4957L172.156 45.7862C172.143 45.7723 172.143 45.7445 172.143 45.7166C172.143 45.6888 172.156 45.6749 172.184 45.661L173.103 45.0906C173.116 45.0767 173.144 45.0767 173.172 45.0767C173.2 45.0767 173.214 45.0906 173.228 45.1184L173.603 45.7305C173.77 45.6332 173.937 45.5497 174.104 45.4662C174.118 45.4523 174.146 45.4523 174.174 45.4662C174.202 45.4662 174.215 45.4801 174.229 45.5079L174.605 46.287C174.619 46.3148 174.619 46.3288 174.605 46.3566C174.591 46.3844 174.577 46.3983 174.563 46.3983C174.271 46.4957 174.021 46.607 173.812 46.7322C173.729 46.7879 173.659 46.8435 173.617 46.8992C173.576 46.9548 173.548 47.0244 173.548 47.08C173.548 47.1357 173.548 47.1774 173.548 47.2052C173.562 47.2331 173.562 47.2748 173.576 47.2887C173.589 47.3165 173.617 47.3304 173.645 47.3583C173.673 47.3861 173.715 47.4139 173.77 47.4278C173.826 47.4557 173.909 47.4696 174.007 47.4696C174.104 47.4696 174.215 47.4417 174.327 47.4139C174.466 47.3722 174.605 47.3443 174.758 47.3443C174.911 47.3443 175.064 47.3583 175.217 47.4C175.37 47.4417 175.523 47.5252 175.662 47.6365C175.788 47.7478 175.913 47.8869 176.01 48.0539Z" fill="#4C4D4E"/>
<path d="M175.356 51.0865C175.328 51.0865 175.314 51.0865 175.287 51.0726C175.217 51.0587 175.147 51.003 175.106 50.9335L174.827 50.4883C174.716 50.5439 174.605 50.5996 174.494 50.6552C174.424 50.6831 174.354 50.6831 174.285 50.6691C174.215 50.6413 174.16 50.5996 174.118 50.5439C174.118 50.5439 174.118 50.53 174.104 50.53L173.728 49.7509C173.687 49.6675 173.687 49.584 173.714 49.5144C173.742 49.431 173.812 49.3753 173.895 49.3475C173.951 49.3336 174.02 49.3058 174.076 49.2779C174.146 49.2501 174.215 49.2223 174.313 49.1666C174.41 49.1249 174.494 49.0832 174.563 49.0275C174.633 48.9858 174.688 48.944 174.716 48.9023C174.744 48.8606 174.744 48.8467 174.744 48.8467C174.744 48.8049 174.744 48.7771 174.744 48.7771C174.744 48.7632 174.73 48.7493 174.73 48.7493C174.73 48.7493 174.73 48.7354 174.702 48.7214C174.702 48.7214 174.674 48.6936 174.619 48.6658C174.605 48.6658 174.577 48.6519 174.48 48.6519C174.396 48.6519 174.313 48.6658 174.215 48.7075C174.062 48.7632 173.895 48.791 173.728 48.791C173.561 48.791 173.394 48.7632 173.214 48.7214C173.033 48.6797 172.852 48.5823 172.685 48.4571C172.518 48.3319 172.379 48.1649 172.254 47.9702C172.087 47.6919 172.003 47.3998 172.031 47.1215C172.059 46.885 172.142 46.6485 172.295 46.4259L171.934 45.8416C171.892 45.772 171.878 45.7025 171.892 45.6329C171.906 45.5495 171.961 45.4799 172.031 45.4382L172.949 44.8678C173.019 44.826 173.102 44.8121 173.172 44.826C173.255 44.8399 173.311 44.8956 173.353 44.9512L173.631 45.3964C173.742 45.3408 173.854 45.2851 173.979 45.2295C174.048 45.2017 174.118 45.2016 174.187 45.2156C174.271 45.2434 174.34 45.299 174.368 45.3686L174.744 46.1477C174.786 46.2172 174.786 46.3007 174.758 46.3842C174.73 46.4677 174.66 46.5372 174.577 46.565C174.313 46.6624 174.076 46.7737 173.881 46.885C173.812 46.9268 173.77 46.9546 173.742 46.9963C173.714 47.0241 173.714 47.052 173.714 47.052C173.714 47.1076 173.714 47.1215 173.714 47.1354C173.714 47.1494 173.714 47.1494 173.728 47.1633C173.728 47.1633 173.728 47.1772 173.742 47.1772C173.742 47.1772 173.77 47.1911 173.826 47.2189C173.84 47.2189 173.881 47.2328 173.965 47.2328C174.048 47.2328 174.132 47.2189 174.229 47.1772C174.382 47.1354 174.549 47.1076 174.716 47.0937C174.883 47.0937 175.064 47.1076 175.231 47.1633C175.412 47.2189 175.593 47.3024 175.76 47.4276C175.926 47.5528 176.066 47.7198 176.191 47.9145C176.372 48.2206 176.455 48.5128 176.441 48.791C176.427 49.0275 176.33 49.264 176.163 49.4866L176.511 50.057C176.553 50.1266 176.566 50.1961 176.553 50.2796C176.539 50.3631 176.483 50.4187 176.427 50.4605L175.509 51.0309C175.453 51.0726 175.412 51.0865 175.356 51.0865ZM174.897 50.0153C174.967 50.0153 175.036 50.057 175.078 50.1127L175.398 50.6274L176.107 50.1961L175.746 49.6118C175.704 49.5283 175.704 49.431 175.773 49.3614C175.94 49.1666 176.038 48.9858 176.052 48.791C176.066 48.5962 175.996 48.3875 175.857 48.1649C175.76 48.0119 175.662 47.8867 175.537 47.7893C175.412 47.6919 175.287 47.6224 175.161 47.5946C175.022 47.5528 174.897 47.5389 174.772 47.5389C174.647 47.5389 174.521 47.5667 174.396 47.5946C174.257 47.6363 174.132 47.6641 174.007 47.6641C173.881 47.6641 173.77 47.6502 173.687 47.6085C173.617 47.5667 173.547 47.5389 173.506 47.4972C173.464 47.4554 173.422 47.4137 173.394 47.372C173.367 47.3302 173.339 47.2746 173.339 47.2189C173.325 47.1633 173.325 47.1076 173.325 47.0381C173.325 46.9407 173.367 46.8433 173.436 46.7459C173.506 46.6624 173.589 46.5929 173.701 46.5233C173.881 46.412 174.104 46.3146 174.354 46.2172L174.09 45.6747C173.965 45.7303 173.826 45.7999 173.701 45.8694C173.603 45.9251 173.478 45.8973 173.422 45.7999L173.102 45.2851L172.393 45.7164L172.768 46.3285C172.81 46.3981 172.81 46.4955 172.754 46.565C172.601 46.7598 172.518 46.9546 172.49 47.1494C172.476 47.3441 172.518 47.5389 172.657 47.7476C172.754 47.9006 172.866 48.0258 172.991 48.1232C173.116 48.2206 173.241 48.2902 173.367 48.318C173.506 48.3597 173.631 48.3736 173.77 48.3736C173.895 48.3736 174.021 48.3597 174.132 48.318C174.271 48.2762 174.396 48.2484 174.521 48.2484C174.647 48.2484 174.758 48.2623 174.841 48.3041C174.911 48.3458 174.967 48.3736 175.008 48.4154C175.05 48.4571 175.092 48.4988 175.12 48.5406C175.147 48.5823 175.161 48.638 175.175 48.6936C175.189 48.7493 175.189 48.8049 175.189 48.8745C175.189 48.9719 175.147 49.0692 175.078 49.1666C175.008 49.2501 174.925 49.3197 174.814 49.3892C174.73 49.4449 174.633 49.4866 174.521 49.5423C174.41 49.584 174.327 49.6257 174.257 49.6536C174.229 49.6675 174.201 49.6675 174.187 49.6814L174.452 50.2379C174.563 50.1822 174.688 50.1127 174.814 50.0431C174.827 50.0292 174.869 50.0153 174.897 50.0153ZM174.466 46.1755C174.466 46.1894 174.466 46.1894 174.466 46.1755C174.466 46.1894 174.466 46.1894 174.466 46.1755Z" fill="#4C4D4E"/>
<path d="M174.033 55.0246C171.905 55.0246 169.206 53.5778 167.23 47.4981C165.588 42.4202 159.718 31.7773 152.094 31.2348C151.885 31.2208 151.704 31.0678 151.648 30.8591C151.593 30.6504 151.69 30.4418 151.871 30.3305C152.358 30.0244 163.752 22.9848 166.701 22.2057C168.287 21.7884 170.04 22.4422 171.793 24.0978C173.421 25.642 174.965 27.9932 176.273 30.9009C177.817 34.3511 179.556 37.9126 181.796 40.5559C184.593 43.8392 187.403 44.7992 190.422 43.4914C190.589 43.4219 190.797 43.4497 190.937 43.5749C191.076 43.7001 191.131 43.8949 191.076 44.0757C189.587 49.1119 177.511 54.5795 174.743 54.9829C174.492 55.0107 174.27 55.0246 174.033 55.0246ZM153.527 30.4696C157.366 31.3043 160.497 34.3372 162.514 36.8831C165.366 40.4586 167.286 44.5627 168.148 47.1921C169.734 52.0892 171.905 54.3847 174.576 54.0091C176.885 53.6752 187.152 49.0285 189.684 44.7713C182.297 46.8164 177.483 36.0345 175.369 31.3043C172.892 25.7533 169.512 22.484 166.952 23.1657C164.67 23.7639 156.559 28.6193 153.527 30.4696Z" fill="#4C4D4E"/>
<path d="M164.461 28.9673C164.28 28.9673 164.113 28.8699 164.029 28.7029C163.904 28.4664 164.002 28.1743 164.238 28.0491C164.252 28.0352 166.283 26.9778 168.857 25.684C169.093 25.5588 169.386 25.6562 169.511 25.8927C169.636 26.1292 169.539 26.4213 169.302 26.5466C166.742 27.8543 164.711 28.8977 164.697 28.9116C164.614 28.9534 164.53 28.9673 164.461 28.9673Z" fill="#4C4D4E"/>
<path d="M164.072 32.1399C163.919 32.1399 163.78 32.0703 163.683 31.9451C163.53 31.7225 163.572 31.4165 163.794 31.2634C164.657 30.6374 167.481 29.1905 170.375 27.9106C170.625 27.7993 170.903 27.9106 171.015 28.161C171.126 28.4114 171.015 28.6897 170.764 28.801C167.968 30.0391 165.158 31.4582 164.365 32.0425C164.281 32.0982 164.17 32.1399 164.072 32.1399Z" fill="#4C4D4E"/>
<path d="M167.745 35.1291C167.578 35.1291 167.425 35.0456 167.328 34.8926C167.189 34.67 167.258 34.3639 167.481 34.2248C167.509 34.2109 170.096 32.611 172.03 31.5954C172.266 31.4702 172.559 31.5675 172.684 31.8041C172.809 32.0406 172.712 32.3327 172.475 32.4579C170.583 33.4457 168.009 35.0317 167.982 35.0456C167.926 35.1013 167.828 35.1291 167.745 35.1291Z" fill="#4C4D4E"/>
<path d="M169.998 38.9974C169.845 38.9974 169.692 38.9278 169.609 38.8026C169.456 38.58 169.497 38.274 169.72 38.1209C169.734 38.107 171.515 36.8271 173.184 35.7698C173.407 35.6306 173.713 35.6863 173.852 35.9228C173.991 36.1454 173.935 36.4515 173.699 36.5906C172.043 37.634 170.304 38.9 170.276 38.9139C170.207 38.9696 170.096 38.9974 169.998 38.9974Z" fill="#4C4D4E"/>
<path d="M177.179 111.757C176.914 111.757 176.692 111.549 176.692 111.284C176.692 111.257 176.692 111.187 176.678 111.104C176.386 107.612 176.719 106.749 177.318 106.513C178.097 106.207 180.879 106.137 181.436 106.123C181.436 106.123 181.436 106.123 181.45 106.123C181.714 106.123 181.937 106.332 181.937 106.596C181.937 106.86 181.728 107.083 181.464 107.097C180.295 107.125 178.305 107.222 177.735 107.389C177.652 107.528 177.429 108.196 177.665 111.006C177.679 111.173 177.679 111.215 177.679 111.257C177.665 111.535 177.443 111.757 177.179 111.757Z" fill="#FBD931"/>
<path d="M204.279 111.284C204.265 111.284 204.251 111.284 204.237 111.284C203.973 111.257 203.764 111.02 203.792 110.756C203.875 109.782 203.959 108.071 203.82 107.542C203.542 107.306 202.067 107.097 200.606 107.097C200.342 107.097 200.119 106.874 200.119 106.61C200.119 106.346 200.342 106.123 200.606 106.123C202.345 106.123 204.46 106.318 204.738 107.222C204.988 108.029 204.794 110.38 204.752 110.839C204.738 111.104 204.529 111.284 204.279 111.284Z" fill="#FBD931"/>
<path d="M202.497 130.359C201.746 130.359 201.05 130.261 200.814 130.219C200.549 130.178 200.369 129.927 200.41 129.663C200.452 129.399 200.702 129.218 200.967 129.259C202.414 129.482 203.749 129.371 203.888 129.12C203.958 128.049 203.888 126.046 203.888 126.018C203.874 125.754 204.083 125.517 204.361 125.517C204.626 125.517 204.862 125.712 204.862 125.99C204.862 126.074 204.932 128.063 204.862 129.19C204.848 129.468 204.709 129.719 204.473 129.913C204.041 130.261 203.248 130.359 202.497 130.359Z" fill="#FBD931"/>
<path d="M181.017 130.637C180.516 130.637 178.805 130.609 178.22 130.289C178.012 130.178 177.441 129.872 177.441 126.004C177.441 125.74 177.664 125.517 177.928 125.517C178.193 125.517 178.415 125.74 178.415 126.004C178.415 127.395 178.54 129.065 178.735 129.454C179.069 129.579 180.14 129.649 181.017 129.649C181.281 129.649 181.504 129.872 181.504 130.136C181.504 130.4 181.295 130.637 181.017 130.637Z" fill="#FBD931"/>
<path d="M185.302 118.158C184.12 118.158 182.826 118.13 182.172 118.033C181.935 117.991 181.532 117.935 181.435 117.56C181.184 116.627 181.156 113.4 182.589 111.591C183.508 110.437 185.706 110.158 189.142 110.743C189.225 110.757 189.295 110.77 189.323 110.77C189.504 110.784 189.657 110.882 189.74 111.049C189.796 111.16 189.935 111.424 189.921 114.388C189.907 117.365 189.768 117.574 189.698 117.685C189.545 117.921 189.448 118.088 186.248 118.144C185.956 118.158 185.636 118.158 185.302 118.158ZM182.325 117.073C183.382 117.24 187.737 117.226 188.864 117.059C188.961 116.085 188.975 112.704 188.892 111.703C184.954 111.035 183.73 111.73 183.355 112.203C182.242 113.595 182.186 116.127 182.325 117.073ZM189.295 110.784H189.309H189.295Z" fill="#4C4D4E"/>
<path d="M186.569 116.196H185.748C185.261 116.196 184.857 115.793 184.857 115.306V114.721C184.857 114.235 185.261 113.831 185.748 113.831H186.569C187.056 113.831 187.459 114.235 187.459 114.721V115.306C187.459 115.807 187.056 116.196 186.569 116.196Z" fill="#4C4D4E"/>
<path d="M186.568 116.405H185.748C185.135 116.405 184.648 115.918 184.648 115.305V114.721C184.648 114.109 185.135 113.622 185.748 113.622H186.568C187.18 113.622 187.667 114.109 187.667 114.721V115.305C187.667 115.918 187.167 116.405 186.568 116.405ZM185.748 114.053C185.372 114.053 185.066 114.359 185.066 114.735V115.319C185.066 115.695 185.372 116.001 185.748 116.001H186.568C186.944 116.001 187.25 115.695 187.25 115.319V114.735C187.25 114.359 186.944 114.053 186.568 114.053H185.748Z" fill="#4C4D4E"/>
<path d="M186.569 125.044H185.748C185.261 125.044 184.857 124.641 184.857 124.154V123.57C184.857 123.083 185.261 122.679 185.748 122.679H186.569C187.056 122.679 187.459 123.083 187.459 123.57V124.154C187.459 124.641 187.056 125.044 186.569 125.044Z" fill="#4C4D4E"/>
<path d="M186.568 125.253H185.748C185.135 125.253 184.648 124.766 184.648 124.154V123.569C184.648 122.957 185.135 122.47 185.748 122.47H186.568C187.18 122.47 187.667 122.957 187.667 123.569V124.154C187.667 124.766 187.167 125.253 186.568 125.253ZM185.748 122.888C185.372 122.888 185.066 123.194 185.066 123.569V124.154C185.066 124.529 185.372 124.835 185.748 124.835H186.568C186.944 124.835 187.25 124.529 187.25 124.154V123.569C187.25 123.194 186.944 122.888 186.568 122.888H185.748Z" fill="#4C4D4E"/>
<path d="M195.987 115.765H195.166C194.679 115.765 194.275 115.362 194.275 114.875V114.29C194.275 113.803 194.679 113.4 195.166 113.4H195.987C196.474 113.4 196.877 113.803 196.877 114.29V114.875C196.877 115.362 196.474 115.765 195.987 115.765Z" fill="#4C4D4E"/>
<path d="M195.986 115.973H195.165C194.553 115.973 194.066 115.486 194.066 114.874V114.29C194.066 113.678 194.553 113.191 195.165 113.191H195.986C196.598 113.191 197.085 113.678 197.085 114.29V114.874C197.085 115.473 196.585 115.973 195.986 115.973ZM195.165 113.608C194.79 113.608 194.484 113.914 194.484 114.29V114.874C194.484 115.25 194.79 115.556 195.165 115.556H195.986C196.362 115.556 196.668 115.25 196.668 114.874V114.29C196.668 113.914 196.362 113.608 195.986 113.608H195.165Z" fill="#4C4D4E"/>
<path d="M195.987 125.044H195.166C194.679 125.044 194.275 124.641 194.275 124.154V123.57C194.275 123.083 194.679 122.679 195.166 122.679H195.987C196.474 122.679 196.877 123.083 196.877 123.57V124.154C196.877 124.641 196.474 125.044 195.987 125.044Z" fill="#4C4D4E"/>
<path d="M195.986 125.253H195.165C194.553 125.253 194.066 124.766 194.066 124.154V123.569C194.066 122.957 194.553 122.47 195.165 122.47H195.986C196.598 122.47 197.085 122.957 197.085 123.569V124.154C197.085 124.766 196.585 125.253 195.986 125.253ZM195.165 122.888C194.79 122.888 194.484 123.194 194.484 123.569V124.154C194.484 124.529 194.79 124.835 195.165 124.835H195.986C196.362 124.835 196.668 124.529 196.668 124.154V123.569C196.668 123.194 196.362 122.888 195.986 122.888H195.165Z" fill="#4C4D4E"/>
<path d="M195.585 118.339C194.403 118.339 193.109 118.283 192.497 118.144C191.94 118.019 191.829 117.713 191.843 117.49C191.843 117.379 191.857 117.031 191.857 116.586C191.94 110.896 192.065 110.77 192.302 110.562C192.803 110.116 196.03 110.061 197.909 110.993C199.091 111.577 199.606 113.261 199.842 114.582C200.051 115.82 200.093 117.309 199.926 117.699C199.815 117.963 199.689 118.241 196.49 118.311C196.197 118.325 195.891 118.339 195.585 118.339ZM192.803 117.212C193.874 117.42 198.006 117.393 199.022 117.17C199.091 116.224 198.855 112.565 197.463 111.869C196.003 111.146 193.693 111.174 193.012 111.299C192.886 112.162 192.831 115.459 192.817 116.6C192.817 116.85 192.817 117.059 192.803 117.212Z" fill="#4C4D4E"/>
<path d="M187.863 129.302C186.083 129.302 182.966 128.954 181.965 126.645C181.06 124.558 181.519 121.066 181.825 120.607C181.965 120.384 182.118 120.148 184.538 120.078C185.763 120.05 187.209 120.078 188.211 120.162C189.31 120.245 189.644 120.357 189.769 120.677C189.922 121.024 189.881 123.362 189.853 124.725C189.755 128.44 189.575 128.829 189.505 128.954C189.408 129.163 189.241 129.233 189.157 129.246C189.143 129.246 188.629 129.302 187.863 129.302ZM182.632 121.205C182.465 121.887 182.145 124.628 182.855 126.255C183.773 128.37 187.557 128.412 188.67 128.314C188.851 127.146 188.962 122.374 188.879 121.205C187.836 121.024 183.551 120.955 182.632 121.205Z" fill="#4C4D4E"/>
<path d="M192.409 123.166H192.396C192.131 123.152 191.909 122.93 191.922 122.665C191.936 122.206 191.936 121.817 191.936 121.483C191.936 120.551 191.936 120.203 192.187 119.952C192.368 119.771 192.409 119.73 197.126 119.813C197.39 119.813 197.613 120.036 197.599 120.314C197.599 120.578 197.376 120.787 197.112 120.787C197.112 120.787 197.112 120.787 197.098 120.787C195.456 120.759 193.62 120.745 192.91 120.759C192.896 120.954 192.896 121.218 192.896 121.483C192.896 121.817 192.896 122.22 192.882 122.693C192.882 122.957 192.674 123.166 192.409 123.166Z" fill="#4C4D4E"/>
<path d="M196.656 128.787C196.461 128.787 196.281 128.675 196.211 128.495C196.1 128.244 196.225 127.966 196.461 127.855C197.825 127.27 199.522 126.547 199.23 120.119C199.216 119.855 199.425 119.619 199.689 119.605C199.953 119.591 200.19 119.799 200.204 120.064C200.51 126.616 198.785 127.91 196.851 128.745C196.781 128.773 196.726 128.787 196.656 128.787Z" fill="#4C4D4E"/>
<path d="M193.345 129.093C192.482 129.093 192.12 129.009 191.967 128.675C191.87 128.466 191.856 128.119 191.842 126.407C191.842 126.046 191.828 125.642 191.828 125.225C191.828 124.961 192.037 124.738 192.301 124.724C192.565 124.724 192.788 124.933 192.802 125.197C192.802 125.614 192.816 126.018 192.816 126.394C192.83 127.061 192.83 127.743 192.858 128.105C193.205 128.133 193.859 128.119 194.179 128.105C194.36 128.105 194.513 128.091 194.624 128.091C194.889 128.091 195.111 128.313 195.111 128.578C195.111 128.842 194.889 129.065 194.624 129.065C194.527 129.065 194.388 129.065 194.207 129.079C193.873 129.093 193.581 129.093 193.345 129.093Z" fill="#4C4D4E"/>
<path d="M106.712 78.452C106.698 78.452 106.684 78.452 106.656 78.452C106.392 78.4242 106.197 78.1877 106.225 77.9234C106.948 70.9812 109.522 60.3662 110.079 58.0985C109.286 57.8202 107.491 57.1942 105.71 56.4568C101.258 54.6065 100.702 53.7161 100.757 53.0344C100.799 52.5753 100.855 51.9354 109.564 48.5547C113.738 46.927 117.953 45.4383 117.995 45.4244C118.245 45.341 118.523 45.4662 118.621 45.7166C118.704 45.967 118.579 46.2453 118.329 46.3426C110.802 48.9999 102.705 52.2136 101.759 53.1596C101.884 53.3822 102.594 54.1196 106.281 55.636C108.534 56.5681 110.774 57.3055 110.802 57.3194C111.039 57.4029 111.178 57.6533 111.122 57.9037C111.094 58.0289 107.992 70.3273 107.185 78.0347C107.171 78.2712 106.962 78.452 106.712 78.452Z" fill="#4C4D4E"/>
<path d="M116.993 63.2746C116.728 63.2746 116.506 63.052 116.506 62.7877C116.506 62.5233 116.728 62.3007 116.993 62.3007C119.372 62.3007 120.763 61.2434 120.888 59.3235C120.902 59.0592 121.139 58.8505 121.403 58.8644C121.667 58.8783 121.876 59.1148 121.862 59.3792C121.695 61.8138 119.873 63.2746 116.993 63.2746Z" fill="#4C4D4E"/>
<path d="M122.251 83.1681C122.237 83.1681 122.21 83.1681 122.196 83.1681C121.931 83.1403 121.737 82.9037 121.764 82.6255C122.126 79.2866 122.641 75.2799 123.295 70.7166C124.143 64.7344 124.922 59.9069 124.922 59.8512C124.964 59.6147 125.173 59.4338 125.409 59.4477C127.009 59.4756 128.4 59.406 129.541 59.2252C131.92 58.8495 132.699 58.14 132.95 57.7505C133.117 57.4861 133.158 57.194 133.061 56.8879C132.755 55.8723 129.388 54.9819 124.881 55.2741C124.616 55.288 124.38 55.0932 124.366 54.815C124.352 54.5507 124.547 54.3141 124.825 54.3002C128.832 54.0498 133.409 54.662 134.007 56.6097C134.188 57.194 134.105 57.7644 133.785 58.2791C133.186 59.2252 131.823 59.879 129.708 60.199C128.609 60.366 127.315 60.4494 125.827 60.4355C125.618 61.7294 124.964 65.903 124.269 70.8697C123.629 75.419 123.114 79.4118 122.752 82.7368C122.71 82.9872 122.502 83.1681 122.251 83.1681Z" fill="#4C4D4E"/>
<path d="M125.758 57.765C125.522 57.765 125.313 57.5841 125.271 57.3476C125.23 57.0833 125.424 56.8328 125.689 56.805C127.65 56.5407 129.848 56.6381 129.946 56.652C130.21 56.6659 130.419 56.8885 130.405 57.1667C130.391 57.4311 130.154 57.6397 129.89 57.6258C129.862 57.6258 127.692 57.5145 125.814 57.7789C125.8 57.765 125.786 57.765 125.758 57.765Z" fill="#4C4D4E"/>
<path d="M125.021 46.8162C125.021 46.8162 128.457 45.2302 131.017 48.0822C133.994 51.4351 130.781 54.9966 130.711 55.1079C128.819 54.7323 126.704 54.7184 126.704 54.7184C126.913 58.1129 125.522 58.6416 124.924 58.5581C124.311 58.4747 124.534 57.2782 124.534 57.2782C116.006 54.3288 118.663 47.0666 118.663 47.0666C117.049 47.7344 114.044 47.3727 113.975 47.4005C114.948 42.42 122.823 43.0182 125.021 46.8162Z" fill="#4C4D4E"/>
<path d="M125.035 59.0593C124.965 59.0593 124.909 59.0593 124.84 59.0454C124.589 59.0036 124.381 58.8784 124.242 58.6836C124.019 58.3776 123.991 57.9463 124.005 57.6263C121.334 56.6246 119.484 55.0943 118.524 53.0631C117.536 50.9902 117.731 48.9173 117.967 47.7904C116.562 48.0825 114.837 47.9573 114.183 47.9156C114.1 47.9156 114.03 47.9017 114.002 47.9017C113.877 47.9156 113.752 47.8738 113.654 47.7904C113.515 47.6791 113.46 47.4982 113.487 47.3313C113.905 45.2584 115.463 43.8393 117.772 43.4498C120.652 42.9628 123.769 44.1593 125.215 46.2322C126.259 45.8983 129.153 45.2723 131.379 47.7765C134.244 51.0041 131.907 54.4126 131.114 55.3864L131.086 55.4143C130.975 55.5673 130.78 55.6369 130.599 55.609C129.32 55.3586 127.928 55.2751 127.191 55.2334C127.219 56.8194 126.885 57.9463 126.189 58.5863C125.869 58.8784 125.438 59.0593 125.035 59.0593ZM125.021 58.0854C125.104 58.0854 125.313 58.0715 125.549 57.8628C125.855 57.5846 126.342 56.8055 126.217 54.7604C126.203 54.6213 126.259 54.4961 126.356 54.3987C126.454 54.3013 126.579 54.2456 126.718 54.2456C126.801 54.2456 128.68 54.2735 130.516 54.5934C131.392 53.4387 132.839 50.865 130.669 48.4164C128.387 45.8566 125.271 47.2478 125.243 47.2617C125.021 47.373 124.742 47.2756 124.617 47.0669C123.49 45.1331 120.569 43.9645 117.953 44.3958C116.938 44.5627 115.226 45.1192 114.6 46.9556C115.533 47.0113 117.383 47.0669 118.482 46.6218C118.663 46.5522 118.871 46.5939 119.011 46.7191C119.15 46.8583 119.191 47.053 119.136 47.2339C119.122 47.2617 118.162 49.9885 119.428 52.6457C120.318 54.51 122.099 55.9151 124.715 56.8194C124.937 56.9029 125.076 57.1255 125.035 57.3759C124.965 57.6402 124.965 57.9602 125.021 58.0854Z" fill="#4C4D4E"/>
<path d="M130.711 70.2159C128.569 71.6349 125.884 72.1775 123.783 70.7863C124.646 64.7345 125.411 59.9347 125.411 59.9347C127.122 59.9626 128.513 59.8791 129.626 59.6982C128.346 63.5797 128.541 66.9743 129.765 67.1552C131.115 67.3639 131.63 66.9187 132.284 66.4457C132.937 66.0005 133.438 68.3934 130.711 70.2159Z" fill="#4C4D4E"/>
<path d="M126.565 72.0941C125.466 72.0941 124.423 71.802 123.519 71.2037C123.366 71.1064 123.282 70.9116 123.31 70.7307C124.159 64.7485 124.938 59.9209 124.938 59.8653C124.979 59.6288 125.188 59.4479 125.425 59.4618C127.025 59.4897 128.416 59.4201 129.557 59.2392C129.724 59.2114 129.89 59.281 130.002 59.4062C130.113 59.5314 130.141 59.7123 130.099 59.8792C129.07 63.0095 129.07 65.625 129.598 66.4875C129.682 66.6127 129.765 66.6962 129.849 66.7101C130.906 66.8771 131.323 66.5849 131.88 66.1814L132.019 66.0841C132.256 65.9171 132.52 65.8893 132.77 66.0006C133.076 66.1397 133.271 66.5014 133.313 66.9744C133.382 67.9066 132.812 69.4369 131.003 70.6473C129.515 71.6072 127.984 72.0941 126.565 72.0941ZM124.312 70.5499C126.023 71.5237 128.291 71.2594 130.447 69.8264C131.88 68.8804 132.214 67.8509 132.283 67.4614C132.311 67.2944 132.325 67.1553 132.311 67.0579C131.713 67.4892 131.059 67.8787 129.682 67.6701C129.417 67.6283 129.056 67.4753 128.75 67.0023C128.026 65.8336 128.11 63.1486 128.931 60.3105C128.012 60.4079 126.969 60.4635 125.814 60.4496C125.619 61.7017 124.993 65.7223 124.312 70.5499Z" fill="#4C4D4E"/>
<path d="M14.5157 34.6431C12.9019 34.6431 11.1211 34.5457 9.25687 34.4344C7.99085 34.3649 6.66919 34.2953 5.37536 34.2536C5.11103 34.2397 4.90234 34.0171 4.90234 33.7528C4.91626 33.4884 5.13885 33.2658 5.40318 33.2797C6.71093 33.3215 8.03259 33.391 9.2986 33.4745C14.8078 33.7806 20.0249 34.0727 20.5536 31.6242C20.6231 31.3042 20.7066 30.9007 20.804 30.4416C22.39 22.9291 24.1429 15.0826 25.089 13.7609C26.6193 11.6045 33.2693 13.3714 34.0206 13.58C34.2849 13.6496 34.438 13.9139 34.3545 14.1783C34.2849 14.4426 34.0206 14.5956 33.7563 14.5122C31.1686 13.8026 26.7306 13.107 25.8681 14.3313C24.922 15.6669 22.6126 26.5462 21.75 30.6503C21.6526 31.1094 21.5692 31.5129 21.4996 31.8329C21.0266 34.1006 18.2581 34.6431 14.5157 34.6431Z" fill="#4C4D4E"/>
<path d="M9.86474 37.1062C10.6417 36.3293 10.6417 35.0696 9.86474 34.2927C9.08782 33.5158 7.82819 33.5158 7.05127 34.2927C6.27435 35.0696 6.27435 36.3293 7.05127 37.1062C7.82819 37.8831 9.08782 37.8831 9.86474 37.1062Z" fill="#4C4D4E"/>
<path d="M8.46375 37.9124C7.25339 37.9124 6.26562 36.9246 6.26562 35.7142C6.26562 34.5039 7.25339 33.5161 8.46375 33.5161C9.67412 33.5161 10.6619 34.5039 10.6619 35.7142C10.6619 36.9246 9.67412 37.9124 8.46375 37.9124ZM8.46375 33.9196C7.47599 33.9196 6.68299 34.7265 6.68299 35.7003C6.68299 36.6881 7.4899 37.4811 8.46375 37.4811C9.45152 37.4811 10.2445 36.6742 10.2445 35.7003C10.2445 34.7265 9.45152 33.9196 8.46375 33.9196Z" fill="#4C4D4E"/>
<path d="M17.1594 37.8842C18.2581 37.8842 19.1488 36.9935 19.1488 35.8947C19.1488 34.796 18.2581 33.9053 17.1594 33.9053C16.0606 33.9053 15.1699 34.796 15.1699 35.8947C15.1699 36.9935 16.0606 37.8842 17.1594 37.8842Z" fill="#4C4D4E"/>
<path d="M17.1591 38.093C15.9487 38.093 14.9609 37.1053 14.9609 35.8949C14.9609 34.6845 15.9487 33.6968 17.1591 33.6968C18.3694 33.6968 19.3572 34.6845 19.3572 35.8949C19.3572 37.1053 18.3694 38.093 17.1591 38.093ZM17.1591 34.1002C16.1713 34.1002 15.3783 34.9071 15.3783 35.881C15.3783 36.8688 16.1852 37.6618 17.1591 37.6618C18.1329 37.6618 18.9398 36.8549 18.9398 35.881C18.9398 34.9071 18.1329 34.1002 17.1591 34.1002Z" fill="#4C4D4E"/>
<path d="M4.99996 28.702C4.81911 28.702 4.63825 28.702 4.4713 28.702C4.20697 28.702 3.98438 28.4794 3.98438 28.2151C3.98438 27.9508 4.20697 27.7282 4.4713 27.7282C8.92321 27.756 21.7085 27.436 21.8337 27.4221C22.0981 27.4221 22.3207 27.6308 22.3346 27.8951C22.3346 28.1595 22.1259 28.3821 21.8616 28.396C21.7364 28.4099 9.86924 28.702 4.99996 28.702Z" fill="#4C4D4E"/>
<path d="M24.1704 18.3929C23.3496 18.3929 4.20636 18.2538 0.547452 17.906C0.28312 17.8781 0.0883511 17.6416 0.102263 17.3773C0.130088 17.113 0.366594 16.9182 0.630926 16.9321C4.23419 17.2799 23.9617 17.419 24.1704 17.419C24.4347 17.419 24.6573 17.6416 24.6573 17.906C24.6573 18.1703 24.4486 18.3929 24.1704 18.3929Z" fill="#4C4D4E"/>
<path d="M5.44467 28.5491C5.30555 28.5491 5.15251 28.4795 5.06904 28.3682C3.96997 26.9909 1.29883 20.953 1.29883 17.5028C1.29883 17.2385 1.52142 17.0159 1.78576 17.0159C2.05009 17.0159 2.27268 17.2385 2.27268 17.5028C2.27268 20.647 4.86036 26.5318 5.83421 27.77C6.00116 27.9787 5.95942 28.2848 5.75074 28.4517C5.66726 28.5213 5.55597 28.5491 5.44467 28.5491Z" fill="#4C4D4E"/>
<path d="M13.0701 23.3462C10.1207 23.3462 6.69833 23.3462 3.05333 23.3462C2.789 23.3462 2.56641 23.1236 2.56641 22.8592C2.56641 22.5949 2.789 22.3723 3.05333 22.3723C13.9188 22.3862 22.8782 22.3723 22.9756 22.3723C23.24 22.3723 23.4626 22.5949 23.4626 22.8592C23.4626 23.1236 23.24 23.3462 22.9756 23.3462C22.9061 23.3462 18.9272 23.3462 13.0701 23.3462Z" fill="#4C4D4E"/>
<path d="M9.6883 28.5493C9.4657 28.5493 9.25702 28.3824 9.21528 28.1598C8.56141 24.6817 8.90921 17.99 8.92312 17.6978C8.93704 17.4335 9.15963 17.2248 9.43787 17.2387C9.70221 17.2526 9.91089 17.4891 9.89698 17.7534C9.89698 17.823 9.53526 24.6122 10.1752 27.9789C10.2309 28.2433 10.05 28.4937 9.78568 28.5493C9.74394 28.5493 9.71612 28.5493 9.6883 28.5493Z" fill="#4C4D4E"/>
<path d="M16.7145 28.3968C16.4641 28.3968 16.2415 28.2021 16.2276 27.9517C16.2276 27.9099 15.8937 23.1798 16.5059 17.7818C16.5337 17.5175 16.7841 17.3227 17.0484 17.3505C17.3128 17.3784 17.5075 17.6288 17.4797 17.8931C16.8676 23.1937 17.2015 27.8404 17.2015 27.8821C17.2154 28.1464 17.0206 28.3829 16.7563 28.3968C16.7424 28.3968 16.7284 28.3968 16.7145 28.3968Z" fill="#4C4D4E"/>
<path d="M134.44 149.127C134.148 149.127 133.869 149.099 133.619 149.057C133.355 149.015 133.174 148.765 133.215 148.501C133.257 148.236 133.508 148.055 133.772 148.097C135.483 148.362 139.184 147.749 144.874 140.557C155.642 126.951 158.744 119.188 156.699 110.882C154.501 101.95 144.248 95.9125 141.159 94.2708C139.532 93.4083 136.165 91.3632 132.589 89.179C128.304 86.5774 122.99 83.3497 122.225 83.155C122.072 83.1689 121.766 83.2941 121.432 83.4471C120.11 84.0175 117.634 85.0888 113.196 83.9897C108.98 82.9602 107.923 80.8734 107.227 79.4821C106.963 78.9535 106.754 78.55 106.462 78.3692C105.294 77.6596 94.1222 76.7275 91.4649 76.6719H91.1867C86.8183 76.5884 82.7141 76.2545 82.269 74.3903C82.0324 73.3747 81.4342 72.4843 78.7213 72.9017C77.6223 73.0686 76.8849 72.9434 76.398 72.4982C75.8415 71.9835 75.8137 71.1626 75.8693 70.4253C75.8972 70.1192 75.9667 69.1732 74.4086 69.0341L74.3251 69.0202C72.7947 68.895 72.3356 68.3385 72.2522 64.9856C72.1826 62.4397 66.2143 56.847 63.3483 54.1619C62.444 53.3133 61.7902 52.7011 61.498 52.3672C60.6216 51.3517 56.267 50.1969 53.6515 49.8491C53.3872 49.8074 53.1924 49.5709 53.2342 49.3066C53.2759 49.0422 53.5124 48.8475 53.7767 48.8892C55.8914 49.1674 60.9694 50.2804 62.2354 51.7412C62.4858 52.0333 63.1675 52.6733 64.0161 53.4663C68.4263 57.5982 73.1565 62.2449 73.226 64.9717C73.2678 66.5021 73.393 67.3924 73.6156 67.7681C73.7408 67.9768 73.866 68.0185 74.4086 68.0602L74.492 68.0741C76.0641 68.2133 76.9406 69.1175 76.8432 70.5088C76.7875 71.2183 76.8571 71.6078 77.0658 71.7887C77.3023 72.0113 77.817 72.053 78.5822 71.9417C79.57 71.7887 82.5611 71.3435 83.2289 74.1677C83.2706 74.3625 83.6324 75.0024 86.2896 75.378C88.0147 75.6285 90.0181 75.6702 91.2284 75.6841H91.5067C93.1761 75.7119 105.405 76.5606 106.991 77.5205C107.52 77.8405 107.798 78.3831 108.118 79.023C108.772 80.3169 109.676 82.0976 113.446 83.0159C117.578 84.0314 119.762 83.0854 121.07 82.515C121.571 82.3063 121.933 82.1394 122.28 82.1533C122.893 82.1672 125.383 83.628 133.118 88.3164C136.68 90.4867 140.046 92.5318 141.646 93.3805C144.832 95.0638 155.378 101.297 157.673 110.618C159.802 119.257 156.658 127.243 145.667 141.127C140.561 147.582 136.847 149.127 134.44 149.127Z" fill="#4C4D4E"/>
<path d="M125.924 138.525C125.716 138.525 125.521 138.386 125.451 138.178C124.491 134.811 124.7 134.032 125.59 132.46C125.938 131.861 127.163 130.401 128.735 128.536C131.378 125.392 135.371 120.662 135.885 118.923C136.637 116.391 135.621 112.774 123.295 103.564C123.086 103.397 123.031 103.105 123.198 102.882C123.365 102.674 123.657 102.618 123.879 102.785C135.969 111.814 137.791 115.876 136.818 119.187C136.247 121.107 132.505 125.573 129.486 129.149C128.011 130.902 126.745 132.404 126.453 132.919C125.688 134.254 125.521 134.769 126.411 137.885C126.481 138.15 126.342 138.414 126.077 138.484C126.008 138.525 125.966 138.525 125.924 138.525Z" fill="#4C4D4E"/>
<path d="M89.2378 100.461C89.2239 100.461 89.196 100.461 89.1821 100.461C86.831 100.169 65.9905 97.3591 58.9231 91.1959C51.0348 84.3094 43.077 64.5819 43.0075 64.3871C42.2284 62.3977 42.131 60.7699 42.6179 57.7092C42.6597 57.4449 42.9101 57.2641 43.1744 57.3058C43.4388 57.3475 43.6196 57.598 43.5779 57.8623C43.1188 60.756 43.1883 62.2029 43.9118 64.0393C43.9813 64.2341 51.8417 83.7251 59.563 90.4725C66.4078 96.4548 86.984 99.2094 89.3073 99.5015C89.5717 99.5294 89.7664 99.7798 89.7247 100.044C89.6969 100.281 89.4743 100.461 89.2378 100.461Z" fill="#4C4D4E"/>
<path d="M83.9795 110.172C83.896 110.172 83.7987 110.144 83.7291 110.103C83.5065 109.964 83.423 109.658 83.5622 109.435C84.6195 107.71 89.92 98.8477 91.2278 93.3246C91.2834 93.0602 91.5478 92.8933 91.8121 92.9628C92.0764 93.0185 92.2295 93.2828 92.1738 93.5472C90.8382 99.2233 85.4542 108.211 84.3969 109.95C84.2995 110.089 84.1326 110.172 83.9795 110.172Z" fill="#4C4D4E"/>
<path d="M130.682 151.352C130.362 151.352 129.694 151.352 126.077 146.998C124.936 145.62 122.654 142.74 122.543 142.309C122.153 140.821 124.783 138.386 125.604 137.676C125.715 137.579 125.854 137.537 125.993 137.565C126.132 137.579 126.258 137.662 126.327 137.774C128.052 140.389 132.796 147.373 133.979 148.25C134.09 148.333 134.16 148.444 134.174 148.584C134.188 148.723 134.146 148.848 134.062 148.945C133.728 149.349 132.003 151.352 130.682 151.352ZM123.475 142.017C123.67 142.365 125.117 144.299 126.814 146.358C129.777 149.933 130.57 150.337 130.696 150.378C131.266 150.35 132.282 149.46 133.005 148.681C131.28 146.9 127.092 140.695 125.826 138.789C124.546 139.972 123.392 141.447 123.475 142.017Z" fill="#4C4D4E"/>
<path d="M113.961 162.371C113.599 162.371 113.307 162.259 113.112 162.037C112.834 161.731 112.778 161.285 112.973 160.687C112.25 161.105 111.498 161.397 111.011 161.216C110.719 161.105 110.538 160.868 110.469 160.534C110.26 159.338 111.443 158.016 112.709 156.625C113.53 155.707 114.378 154.761 114.67 154.009C115.116 152.813 115.227 151.923 115.227 151.477C115.199 151.491 115.171 151.505 115.143 151.505C113.404 152.173 111.471 152.855 110.483 152.354C110.191 152.201 109.996 151.964 109.912 151.658C109.606 150.517 111.679 149.154 116.02 146.399C118.329 144.939 120.959 143.283 122.726 141.794C122.934 141.627 123.24 141.641 123.407 141.85C123.574 142.059 123.56 142.365 123.352 142.532C121.529 144.062 118.872 145.745 116.535 147.22C115.004 148.194 113.557 149.098 112.486 149.877C111.053 150.921 110.872 151.31 110.858 151.408C110.872 151.436 110.886 151.449 110.928 151.477C111.624 151.825 114.016 150.893 114.809 150.587C115.255 150.42 115.38 150.364 115.491 150.364C115.686 150.35 115.881 150.434 116.006 150.601C116.451 151.185 116.103 152.952 115.589 154.343C115.241 155.275 114.323 156.291 113.446 157.265C112.472 158.336 111.387 159.56 111.429 160.298C111.832 160.256 113.001 159.588 113.989 158.795C114.17 158.642 114.448 158.656 114.615 158.809C114.796 158.976 114.823 159.24 114.698 159.435C113.794 160.826 113.836 161.285 113.85 161.369C113.947 161.397 114.378 161.411 115.269 160.965C115.463 160.868 115.714 160.91 115.853 161.077C115.922 161.16 116.048 161.272 116.326 161.285C117.536 161.327 119.943 159.393 121.167 158.169C121.348 157.988 121.626 157.974 121.821 158.127C122.016 158.28 122.058 158.559 121.919 158.767C121.543 159.366 121.028 160.437 121.126 160.868V160.882C121.571 160.729 122.92 159.686 125.118 157.293C127.219 154.997 129.153 152.479 130.28 150.587C130.419 150.35 130.711 150.281 130.948 150.42C131.184 150.559 131.254 150.851 131.115 151.088C129.904 153.119 127.776 155.874 125.536 158.28C121.71 162.398 120.987 161.981 120.68 161.8C120.43 161.647 120.249 161.411 120.18 161.118C120.124 160.882 120.138 160.632 120.18 160.353C119.011 161.285 117.467 162.301 116.284 162.273C115.95 162.259 115.658 162.162 115.408 161.995C114.837 162.245 114.35 162.371 113.961 162.371Z" fill="#4C4D4E"/>
<path d="M114.281 159.672C114.142 159.672 114.002 159.616 113.905 159.505C113.724 159.296 113.752 158.99 113.961 158.823C115.936 157.126 117.967 154.844 118.315 154.191C118.44 153.954 118.733 153.857 118.969 153.996C119.206 154.121 119.303 154.413 119.164 154.65C118.719 155.47 116.576 157.849 114.573 159.561C114.503 159.644 114.392 159.672 114.281 159.672Z" fill="#4C4D4E"/>
<path d="M115.476 161.912C115.323 161.912 115.17 161.843 115.073 161.704C114.92 161.481 114.975 161.175 115.198 161.022C117.772 159.255 120.387 155.958 120.415 155.93C120.582 155.721 120.888 155.68 121.097 155.847C121.305 156.014 121.347 156.32 121.18 156.528C121.069 156.667 118.439 159.979 115.754 161.815C115.671 161.885 115.574 161.912 115.476 161.912Z" fill="#4C4D4E"/>
<path d="M121.488 159.018C121.376 159.018 121.265 158.976 121.168 158.893C120.959 158.712 120.945 158.406 121.126 158.211C121.418 157.863 121.752 157.46 121.905 157.251C122.002 157.126 122.309 156.736 122.684 157.015C122.837 157.126 122.99 157.404 122.782 157.71C122.768 157.738 122.74 157.766 122.712 157.78C122.698 157.794 122.684 157.808 122.67 157.835C122.503 158.044 122.183 158.475 121.863 158.837C121.766 158.962 121.627 159.018 121.488 159.018Z" fill="#4C4D4E"/>
<path d="M66.5052 138.804C66.2548 138.804 66.0461 138.609 66.0183 138.358C65.9209 137.245 65.4479 131.291 65.0445 123.876C64.8079 119.41 64.7245 116.321 65.8235 114.054C67.02 111.563 69.5659 110.311 74.0735 110.005C77.5933 109.755 84.3268 109.171 92.1315 108.489C104.04 107.445 118.857 106.138 127.343 105.637C127.608 105.623 127.844 105.832 127.858 106.096C127.872 106.36 127.663 106.597 127.399 106.611C118.926 107.112 104.124 108.405 92.215 109.463C84.4103 110.144 77.6767 110.743 74.143 110.979C70.025 111.271 67.7434 112.343 66.7139 114.485C65.7262 116.53 65.8096 119.521 66.0322 123.82C66.4357 131.221 66.9087 137.162 66.9922 138.275C67.02 138.539 66.8113 138.776 66.547 138.804C66.5331 138.804 66.5191 138.804 66.5052 138.804Z" fill="#4C4D4E"/>
<path d="M67.5212 158.907C65.4622 158.907 64.2379 158.406 63.7092 157.404C61.8589 153.815 62.1372 143.77 62.8328 140.626C63.5701 137.287 66.1995 137.732 68.1194 138.052C68.2724 138.08 68.4116 138.108 68.5646 138.122C70.4567 138.428 79.3327 136.87 82.7133 136.021C84.6889 135.52 86.4279 135.173 87.6383 135.993C88.473 136.55 88.9599 137.579 89.1964 139.221C89.5581 141.85 89.892 146.094 90.1564 151.464C90.2816 154.149 88.626 154.705 83.8263 155.623C82.6716 155.846 81.1134 156.25 79.3187 156.723C76.3276 157.502 72.933 158.378 70.0532 158.768C69.0794 158.851 68.2446 158.907 67.5212 158.907ZM63.7788 140.821C63.0554 144.104 62.9719 153.843 64.5718 156.945C64.9057 157.585 66.1021 158.253 69.9002 157.752C72.7244 157.376 76.0911 156.514 79.0544 155.735C80.8769 155.262 82.449 154.858 83.6315 154.622C88.7512 153.648 89.2521 153.161 89.1686 151.478C88.9043 146.135 88.5843 141.934 88.2226 139.318C88.0417 137.997 87.6661 137.162 87.0957 136.772C86.3027 136.23 85.0228 136.411 82.9498 136.939C79.8335 137.732 70.568 139.402 68.4116 139.068C68.2585 139.04 68.1055 139.012 67.9664 138.998C65.6848 138.623 64.2796 138.553 63.7788 140.821Z" fill="#4C4D4E"/>
<path d="M81.7673 177.187C71.1383 177.187 69.1628 174.113 68.7732 171.483C68.4254 169.188 67.7716 163.846 67.4655 158.448C67.4516 158.183 67.6603 157.947 67.9246 157.933C68.1889 157.919 68.4254 158.128 68.4394 158.392C68.7454 163.748 69.3993 169.049 69.7471 171.33C69.9419 172.652 70.5957 174.308 73.9764 175.323C78.1918 176.589 85.5375 176.492 95.8047 175.003C106.114 173.515 119.511 171.372 131.35 169.48C143.83 167.491 154.598 165.766 158.312 165.362C165.199 164.611 169.066 163.762 168.357 154.998C167.661 146.469 164.698 115.821 163.808 109.296C162.973 103.216 160.83 102.66 152.747 103.105C152.483 103.119 152.247 102.91 152.233 102.646C152.219 102.382 152.427 102.145 152.692 102.131C156.977 101.895 159.648 101.95 161.484 102.896C163.321 103.856 164.281 105.665 164.754 109.157C165.658 115.696 168.621 146.372 169.317 154.914C170.082 164.374 165.714 165.543 158.41 166.336C154.723 166.739 143.955 168.465 131.49 170.454C119.664 172.346 106.253 174.489 95.9299 175.977C90.0172 176.826 85.3983 177.187 81.7673 177.187Z" fill="#4C4D4E"/>
<path d="M81.6428 150.184C79.6394 150.184 78.0117 148.556 78.0117 146.552C78.0117 144.549 79.6394 142.921 81.6428 142.921C83.6462 142.921 85.2739 144.549 85.2739 146.552C85.2739 148.556 83.6462 150.184 81.6428 150.184ZM81.6428 143.895C80.182 143.895 78.9856 145.092 78.9856 146.552C78.9856 148.013 80.182 149.21 81.6428 149.21C83.1036 149.21 84.3 148.013 84.3 146.552C84.3 145.092 83.1036 143.895 81.6428 143.895Z" fill="#4C4D4E"/>
<path d="M116.992 142.226C114.989 142.226 113.361 140.598 113.361 138.595C113.361 136.592 114.989 134.964 116.992 134.964C118.996 134.964 120.623 136.592 120.623 138.595C120.623 140.598 118.996 142.226 116.992 142.226ZM116.992 135.938C115.532 135.938 114.335 137.134 114.335 138.595C114.335 140.056 115.532 141.252 116.992 141.252C118.453 141.252 119.65 140.056 119.65 138.595C119.65 137.134 118.453 135.938 116.992 135.938Z" fill="#4C4D4E"/>
<path d="M111.804 135.326C111.749 135.326 111.679 135.312 111.624 135.284C111.373 135.187 111.248 134.895 111.359 134.644C111.916 133.267 113.46 132.196 115.491 131.765C117.453 131.347 120.18 131.514 121.96 133.225C122.155 133.406 122.155 133.726 121.974 133.907C121.793 134.102 121.473 134.102 121.293 133.921C120.054 132.724 117.856 132.251 115.7 132.711C113.989 133.072 112.709 133.935 112.264 135.006C112.18 135.215 111.999 135.326 111.804 135.326Z" fill="#4C4D4E"/>
<path d="M110.342 131.263C110.287 131.263 110.231 131.25 110.175 131.236C109.925 131.138 109.8 130.86 109.883 130.61C110.565 128.801 112.471 127.41 114.989 126.881C117.897 126.283 120.763 127.02 122.474 128.801C122.655 128.996 122.655 129.302 122.46 129.483C122.265 129.664 121.959 129.664 121.778 129.469C120.011 127.632 117.215 127.41 115.198 127.827C113.041 128.272 111.358 129.469 110.801 130.93C110.732 131.138 110.551 131.263 110.342 131.263Z" fill="#4C4D4E"/>
<path d="M107.354 127.854C107.284 127.854 107.214 127.84 107.159 127.812C106.908 127.701 106.797 127.409 106.908 127.172C107.771 125.225 110.08 123.708 113.225 123.013C117.356 122.108 121.627 122.915 124.09 125.085C124.299 125.266 124.313 125.572 124.132 125.767C123.951 125.976 123.645 125.99 123.45 125.809C121.21 123.847 117.273 123.11 113.433 123.959C110.637 124.571 108.522 125.92 107.799 127.562C107.715 127.743 107.534 127.854 107.354 127.854Z" fill="#4C4D4E"/>
<path d="M43.0075 58.433C42.8962 58.433 42.771 58.4052 42.6458 58.3217C41.8667 57.8904 39.3764 54.5793 39.8634 53.0768C40.6564 50.6004 47.7516 46.0651 51.5357 45.6199C51.8557 45.5781 52.3565 45.7173 53.2608 47.0946C53.706 47.7624 54.179 48.6388 54.2486 49.1258C54.3321 49.6266 54.0121 49.8353 53.8034 49.877C52.8295 50.0857 44.9831 56.4158 43.4388 58.2383C43.3414 58.3496 43.1884 58.433 43.0075 58.433ZM51.5774 46.6076C47.9324 47.0807 41.4076 51.4352 40.7816 53.3968C40.5311 54.1898 42.1867 56.7079 42.938 57.3618C44.6213 55.6088 51.1879 50.0857 53.233 49.084C52.9826 48.3884 51.9948 46.8302 51.5774 46.6076Z" fill="#4C4D4E"/>
<path d="M39.4886 50.0017C39.4051 50.0017 39.3216 49.9739 39.2381 49.9322C37.8887 49.1531 37.0678 47.3306 37.1374 45.2855C37.1791 44.1447 37.4852 43.1569 38.0278 42.4057C35.941 42.5448 32.6438 42.5031 32.1847 40.7919C31.5864 38.5659 35.5931 37.4668 39.4747 36.3956C39.7251 36.326 39.9755 36.2565 40.212 36.1869C39.3494 33.2653 38.1947 30.0794 37.68 29.7177C37.4991 29.5786 37.193 29.4117 36.8452 29.203C35.3705 28.3126 32.8942 26.8379 32.5881 24.8902C32.3933 23.6242 32.7411 22.5669 33.5202 22.0521C34.1324 21.6626 34.8975 21.6765 35.5375 22.0938C35.8575 22.3025 36.6366 22.7477 37.5548 23.2764C41.3528 25.4606 43.217 26.5875 43.5648 27.144C44.0518 27.9231 50.3957 44.2282 51.1053 46.0924C51.2027 46.3428 51.0774 46.6211 50.827 46.7185C50.5766 46.8158 50.2984 46.6906 50.201 46.4402C47.4046 39.2337 43.1057 28.2709 42.744 27.6587C42.3962 27.1857 38.8069 25.1128 37.0818 24.125C36.1218 23.5685 35.3566 23.1373 35.0088 22.9147C34.6888 22.706 34.3271 22.6921 34.0489 22.8729C33.6037 23.1651 33.4089 23.8607 33.548 24.7372C33.7846 26.2397 36.0105 27.5753 37.3461 28.3682C37.7078 28.5908 38.0278 28.7717 38.2504 28.9386C39.3077 29.7038 40.8381 34.8513 41.2832 36.4095C41.325 36.5347 41.2972 36.6738 41.2415 36.7851C41.1719 36.8964 41.0746 36.9799 40.9493 37.0216C40.5598 37.1329 40.1564 37.2442 39.7251 37.3555C36.9565 38.1207 32.769 39.2615 33.1168 40.5553C33.395 41.6127 37.04 41.6266 39.4051 41.3066C39.6416 41.2788 39.8642 41.4179 39.9338 41.6405C40.0033 41.8631 39.892 42.1135 39.6833 42.2248C38.7512 42.6839 38.153 43.8525 38.0973 45.3272C38.0417 46.9828 38.6817 48.4992 39.7112 49.0975C39.9477 49.2366 40.0172 49.5287 39.892 49.7652C39.8225 49.9183 39.6555 50.0017 39.4886 50.0017Z" fill="#4C4D4E"/>
<path d="M40.3239 53.7169C40.2961 53.7169 40.2683 53.7169 40.2404 53.703C39.1831 53.5221 37.1241 52.3674 35.4129 50.6005C33.8965 49.0285 32.0879 46.413 32.1296 42.8932C32.1296 42.6288 32.3522 42.4062 32.6165 42.4062C32.8809 42.4062 33.1035 42.6288 33.1035 42.8932C33.0617 46.0791 34.7173 48.472 36.1085 49.9188C37.778 51.644 39.6144 52.6039 40.3935 52.743C40.6578 52.7848 40.8387 53.0352 40.7969 53.2995C40.7552 53.5499 40.5465 53.7169 40.3239 53.7169Z" fill="#4C4D4E"/>
<path d="M36.5522 38.2599C36.3713 38.2599 36.2044 38.1625 36.107 37.9817C35.0636 35.8392 34.4097 33.0707 35.6618 31.6934C36.2044 31.1091 37.2895 30.5943 39.4737 31.4429C39.7242 31.5403 39.8494 31.8186 39.752 32.069C39.6546 32.3194 39.3763 32.4446 39.1259 32.3472C38.2077 31.9855 36.9834 31.6934 36.3852 32.3472C35.6479 33.1541 35.8844 35.2966 36.9834 37.5504C37.0947 37.7869 36.9974 38.0791 36.7609 38.2043C36.6913 38.246 36.6217 38.2599 36.5522 38.2599Z" fill="#4C4D4E"/>
<path d="M33.574 39.5543C33.421 39.5543 33.254 39.4708 33.1705 39.3317C32.0576 37.6344 31.3898 35.0746 32.3636 33.6833C32.7671 33.099 33.6157 32.5008 35.3826 32.9182C35.6469 32.9738 35.7999 33.2381 35.7443 33.5025C35.6886 33.7668 35.4243 33.9198 35.16 33.8642C34.1722 33.6277 33.5044 33.7529 33.1566 34.2398C32.4888 35.1998 33.0453 37.3701 33.9774 38.7891C34.1305 39.0117 34.0609 39.3178 33.8383 39.4569C33.7688 39.5265 33.6714 39.5543 33.574 39.5543Z" fill="#4C4D4E"/>
<path d="M34.2016 43.8245C33.3112 43.8245 32.1983 43.3793 30.9879 42.5028C29.2767 41.2646 28.442 38.8161 29.2071 37.2579C29.4715 36.7293 30.3062 35.5745 32.5043 36.2284C32.7687 36.298 32.9078 36.5762 32.8382 36.8406C32.7547 37.1049 32.4904 37.244 32.2261 37.1744C31.4748 36.9518 30.4871 36.8545 30.0697 37.7031C29.5688 38.7187 30.1114 40.6942 31.5444 41.7237C33.1582 42.8924 34.2573 43.0037 34.7025 42.7393C34.9251 42.6141 35.0224 42.3498 34.9807 41.9881C34.9529 41.7237 35.1476 41.4872 35.412 41.4594C35.6763 41.4316 35.9128 41.6264 35.9406 41.8907C36.0102 42.6419 35.732 43.2541 35.1755 43.588C34.925 43.741 34.5912 43.8245 34.2016 43.8245Z" fill="#4C4D4E"/>
<path d="M6.1547 114.944C3.16358 114.944 2.56535 114.04 2.13407 112.342C1.59149 110.186 1.20195 107.515 0.478516 100.907C0.464603 100.74 0.450692 100.587 0.422868 100.434L0.339393 99.724C0.172447 98.1797 0.0333255 96.9694 0.00550109 95.9955C-0.0779722 93.1713 0.770674 92.2114 3.77571 91.7384C12.3317 90.3889 23.8649 89.3594 28.2195 88.9698C28.6507 88.9281 29.0125 88.9003 29.2907 88.8725C31.7114 88.6499 33.047 89.4846 33.7844 91.6688C34.1043 92.6149 34.313 93.853 34.4521 95.4808L34.4661 95.6199C34.4939 95.8842 34.2852 96.1207 34.0209 96.1486C33.7565 96.1764 33.52 95.9677 33.4922 95.7034L33.4783 95.5642C33.3531 94.02 33.1444 92.8514 32.8522 91.9888C32.254 90.2359 31.3497 89.6794 29.3603 89.8463C29.082 89.8741 28.7342 89.902 28.289 89.9437C23.9484 90.3332 12.4291 91.3488 3.91483 92.6983C1.38281 93.1018 0.895882 93.6443 0.965443 95.9677C0.993267 96.8998 1.13239 98.1102 1.29934 99.6266L1.38281 100.336C1.39672 100.489 1.42455 100.656 1.43846 100.809C2.14798 107.362 2.53752 110.005 3.06619 112.106C3.49747 113.789 3.73397 114.721 12.9299 113.219C13.1943 113.177 13.4447 113.358 13.4864 113.622C13.5282 113.887 13.3473 114.137 13.083 114.179C9.92491 114.694 7.71287 114.944 6.1547 114.944Z" fill="#4C4D4E"/>
<path d="M33.965 95.5095C28.5253 96.2468 11.1907 98.5841 0.867819 100.045C0.673048 98.3337 0.520012 97.012 0.492188 95.9686C7.94913 95.1199 27.2176 92.6158 33.325 91.8228C33.6311 92.741 33.8398 93.9374 33.965 95.5095Z" fill="#4C4D4E"/>
<path d="M0.867518 100.253C0.825781 100.253 0.770129 100.239 0.742305 100.211C0.700568 100.184 0.672747 100.128 0.658835 100.072L0.617095 99.6967C0.450149 98.1663 0.311028 96.9421 0.283203 95.9821C0.283203 95.8708 0.366675 95.7874 0.46406 95.7734C8.24099 94.8831 29.1789 92.1563 33.283 91.6276C33.3804 91.6137 33.4777 91.6693 33.5056 91.7667C33.8116 92.6849 34.0342 93.9092 34.1595 95.5091C34.1734 95.6204 34.0899 95.7178 33.9786 95.7317L33.8534 95.7456C28.2328 96.5108 11.1208 98.8202 0.881427 100.267C0.895339 100.253 0.88143 100.253 0.867518 100.253ZM0.714483 96.163C0.756219 97.0812 0.881428 98.222 1.04838 99.6549L1.06229 99.8219C11.2878 98.3889 28.0798 96.1073 33.7421 95.3422C33.6169 93.9648 33.436 92.8936 33.1717 92.0589C28.7198 92.6293 8.53315 95.2587 0.714483 96.163Z" fill="#4C4D4E"/>
<path d="M5.88932 105.957C5.49978 105.957 5.1798 105.929 4.94329 105.888C4.79025 105.86 4.33115 105.748 4.17812 105.345C4.039 104.955 3.8164 104.176 3.67728 103.481C3.42686 102.229 3.52424 101.811 3.74684 101.575C4.40071 100.879 8.35178 100.434 9.78474 100.559C10.383 100.615 10.7029 100.74 10.8699 101.004C11.2873 101.63 11.969 104.107 11.1621 104.941C10.6195 105.47 7.65617 105.957 5.88932 105.957ZM5.05459 104.914C5.83367 105.22 9.90995 104.635 10.4664 104.232C10.7029 103.94 10.4525 102.229 10.0908 101.575C9.82648 101.477 8.8248 101.436 7.25272 101.616C5.7502 101.797 4.77634 102.062 4.4981 102.201C4.45636 102.618 4.76243 104.051 5.05459 104.914ZM4.09464 101.881L4.44245 102.215L4.09464 101.881Z" fill="#4C4D4E"/>
<path d="M71.4992 133.655C71.2488 133.655 71.0262 133.461 71.0123 133.196C70.9567 132.264 70.8871 131.346 70.8175 130.442L70.7619 129.732C70.748 129.468 70.9428 129.231 71.2071 129.217C71.4714 129.204 71.7079 129.398 71.7218 129.663L71.7775 130.372C71.8471 131.276 71.9166 132.195 71.9723 133.141C71.9862 133.405 71.7914 133.642 71.5132 133.655C71.5271 133.655 71.5132 133.655 71.4992 133.655ZM71.0541 126.713C70.7897 126.713 70.581 126.505 70.5671 126.24C70.5393 125.642 70.5254 125.099 70.5254 124.599C70.5254 123.903 70.5532 123.291 70.595 122.707C70.6089 122.442 70.8454 122.234 71.1236 122.261C71.3879 122.275 71.5966 122.512 71.5688 122.79C71.5271 123.347 71.4992 123.931 71.4992 124.599C71.4992 125.086 71.5132 125.614 71.5271 126.212C71.541 126.477 71.3323 126.713 71.0541 126.713C71.0541 126.713 71.068 126.713 71.0541 126.713ZM71.8331 119.868C71.7636 119.868 71.694 119.855 71.6384 119.827C71.3879 119.715 71.2906 119.423 71.4019 119.187C71.7914 118.324 72.334 117.643 73.0018 117.156C73.28 116.947 73.6417 116.752 74.0591 116.571C74.3095 116.46 74.5878 116.585 74.6991 116.822C74.8104 117.072 74.6851 117.35 74.4486 117.462C74.1008 117.615 73.8087 117.768 73.5722 117.935C73.0296 118.338 72.5983 118.881 72.2783 119.59C72.1949 119.757 72.014 119.868 71.8331 119.868ZM77.6067 116.571C77.3702 116.571 77.1754 116.404 77.1337 116.168C77.092 115.903 77.2589 115.653 77.5232 115.597C78.5388 115.417 79.7214 115.25 81.0152 115.11C81.2795 115.083 81.516 115.277 81.5439 115.542C81.5717 115.806 81.3769 116.043 81.1126 116.07C79.8466 116.196 78.6919 116.363 77.7041 116.543C77.6624 116.571 77.6345 116.571 77.6067 116.571ZM84.535 115.834C84.2846 115.834 84.062 115.639 84.0481 115.375C84.0341 115.11 84.2428 114.874 84.5072 114.86C86.1766 114.763 87.5122 114.735 88.013 114.735C88.013 114.735 88.013 114.735 88.0269 114.735C88.2913 114.735 88.5139 114.944 88.5139 115.208C88.5139 115.472 88.3052 115.695 88.0409 115.709C87.5539 115.723 86.2323 115.737 84.5767 115.834C84.5489 115.834 84.535 115.834 84.535 115.834Z" fill="#4C4D4E"/>
<path d="M146.042 161.662C145.792 161.662 145.583 161.481 145.555 161.23C145.528 160.966 145.722 160.715 145.987 160.688C147.155 160.549 148.31 160.409 149.437 160.256C149.701 160.215 149.952 160.409 149.979 160.674C150.021 160.938 149.826 161.188 149.562 161.216C148.435 161.369 147.267 161.508 146.098 161.648C146.084 161.648 146.07 161.662 146.042 161.662ZM152.957 160.743C152.72 160.743 152.511 160.576 152.47 160.326C152.428 160.062 152.609 159.811 152.873 159.769C154.153 159.575 155.308 159.38 156.296 159.185C156.56 159.129 156.81 159.31 156.866 159.575C156.922 159.839 156.741 160.089 156.476 160.145C155.475 160.34 154.32 160.535 153.026 160.729C153.012 160.743 152.985 160.743 152.957 160.743ZM159.788 159.352C159.579 159.352 159.398 159.227 159.328 159.018C159.245 158.768 159.384 158.49 159.635 158.406C159.815 158.35 159.982 158.281 160.121 158.225C160.956 157.877 161.499 157.321 161.833 156.472C161.93 156.222 162.208 156.097 162.459 156.194C162.709 156.291 162.834 156.57 162.737 156.82C162.306 157.933 161.582 158.684 160.497 159.129C160.33 159.199 160.149 159.269 159.941 159.338C159.885 159.338 159.829 159.352 159.788 159.352ZM162.737 153.704C162.473 153.704 162.25 153.495 162.25 153.217C162.236 152.299 162.167 151.172 162.027 149.794C162 149.53 162.194 149.294 162.459 149.266C162.723 149.238 162.96 149.433 162.987 149.697C163.127 151.102 163.21 152.257 163.21 153.217C163.224 153.481 163.015 153.704 162.737 153.704ZM162.097 146.775C161.861 146.775 161.652 146.595 161.61 146.358C161.471 145.315 161.318 144.188 161.151 142.991L161.137 142.922C161.095 142.657 161.29 142.407 161.554 142.379C161.819 142.337 162.069 142.532 162.097 142.797L162.111 142.866C162.278 144.063 162.431 145.189 162.57 146.247C162.612 146.511 162.417 146.762 162.153 146.789C162.139 146.775 162.125 146.775 162.097 146.775Z" fill="#4C4D4E"/>
<path d="M85.0241 171.247C83.7024 171.233 82.5199 171.164 81.4904 171.038C81.226 171.011 81.0313 170.76 81.073 170.496C81.1008 170.232 81.3512 170.037 81.6156 170.079C82.6033 170.204 83.7441 170.273 85.0241 170.287C85.2884 170.287 85.511 170.51 85.511 170.774C85.511 171.025 85.2884 171.247 85.0241 171.247ZM88.4882 171.136C88.2378 171.136 88.0152 170.941 88.0013 170.677C87.9874 170.412 88.1961 170.176 88.4604 170.162C89.2256 170.12 90.0464 170.051 90.9089 169.981C91.1733 169.953 91.4098 170.162 91.4376 170.426C91.4654 170.691 91.2567 170.927 90.9924 170.955C90.1298 171.038 89.2951 171.094 88.516 171.136C88.516 171.136 88.5021 171.136 88.4882 171.136ZM78.2071 170.176C78.1375 170.176 78.068 170.162 78.0123 170.134C76.7324 169.564 75.8281 168.757 75.2438 167.658C75.1186 167.421 75.202 167.129 75.4385 167.004C75.6751 166.879 75.9672 166.962 76.0924 167.199C76.5794 168.089 77.3306 168.757 78.4018 169.244C78.6523 169.355 78.7636 169.647 78.6523 169.884C78.5688 170.065 78.3879 170.176 78.2071 170.176ZM74.8125 164.569C74.5621 164.569 74.3534 164.375 74.3256 164.124C74.256 163.317 74.2282 162.469 74.2004 161.564C74.1864 161.258 74.1864 160.938 74.1725 160.618C74.1586 160.354 74.3673 160.117 74.6456 160.117C74.9099 160.103 75.1464 160.312 75.1464 160.59C75.1603 160.91 75.1603 161.23 75.1742 161.536C75.202 162.427 75.2299 163.262 75.2855 164.041C75.3133 164.305 75.1047 164.541 74.8403 164.569C74.8403 164.569 74.8264 164.569 74.8125 164.569Z" fill="#4C4D4E"/>
<path d="M13.5696 102.674C22.3482 99.2513 33.8814 95.9402 37.0256 95.0776C40.1698 94.2012 41.9784 93.116 43.5783 97.081C45.1643 101.046 47.4737 107.752 48.378 109.741C49.2823 111.731 50.0892 113.428 44.9695 115.209C39.8498 116.989 28.6783 120.523 24.0594 122.499C19.4406 124.474 17.8685 125.114 15.3643 119.271C12.8601 113.428 11.761 110.172 10.8289 107.32C9.88288 104.441 11.6776 103.411 13.5696 102.674Z" fill="#FFD482"/>
<path d="M36.679 107.512C38.3082 107.124 39.3142 105.488 38.9257 103.859C38.5373 102.23 36.9016 101.224 35.2723 101.612C33.6431 102.001 32.6372 103.636 33.0256 105.266C33.414 106.895 35.0497 107.901 36.679 107.512Z" fill="#FFFEF2"/>
<path d="M35.9807 108.086C34.0469 108.086 32.4609 106.514 32.4609 104.567C32.4609 102.633 34.033 101.047 35.9807 101.047C37.9284 101.047 39.5005 102.619 39.5005 104.567C39.5005 106.514 37.9145 108.086 35.9807 108.086ZM35.9807 102.021C34.5756 102.021 33.4348 103.162 33.4348 104.567C33.4348 105.972 34.5756 107.113 35.9807 107.113C37.3859 107.113 38.5267 105.972 38.5267 104.567C38.5267 103.162 37.3859 102.021 35.9807 102.021Z" fill="#4C4D4E"/>
<path d="M40.1979 106.903C40.1561 106.903 40.1144 106.903 40.0726 106.903C38.1388 106.833 36.6085 105.206 36.6781 103.272C36.7476 101.338 38.3754 99.8077 40.3092 99.8773C42.243 99.9468 43.7733 101.575 43.7037 103.508C43.6481 105.4 42.076 106.903 40.1979 106.903ZM37.6519 103.286C37.6241 103.967 37.8745 104.607 38.3336 105.108C38.7927 105.609 39.4327 105.887 40.1005 105.915C40.7822 105.943 41.4221 105.693 41.923 105.233C42.4238 104.774 42.7021 104.134 42.7299 103.467C42.7716 102.061 41.6726 100.879 40.2674 100.837C38.8762 100.782 37.6937 101.895 37.6519 103.286Z" fill="#4C4D4E"/>
<path d="M39.391 111.341C39.1962 111.341 39.0014 111.216 38.9319 111.007C38.8484 110.757 38.9736 110.479 39.2379 110.381C41.7421 109.519 43.7455 108.851 43.7594 108.851C44.0098 108.767 44.2881 108.907 44.3716 109.157C44.455 109.407 44.3159 109.686 44.0655 109.769C44.0516 109.769 42.0482 110.437 39.5579 111.299C39.5023 111.327 39.4466 111.341 39.391 111.341Z" fill="#4C4D4E"/>
<path d="M32.949 113.623C32.7542 113.623 32.5733 113.512 32.5038 113.317C32.4064 113.066 32.5177 112.788 32.7681 112.677C33.4637 112.385 34.1176 112.12 34.7019 111.87C35.481 111.55 36.3575 111.202 37.2896 110.827C37.54 110.729 37.8182 110.854 37.9156 111.105C38.013 111.355 37.8878 111.633 37.6374 111.731C36.7053 112.093 35.8427 112.454 35.0636 112.774C34.4793 113.011 33.8254 113.289 33.1298 113.581C33.0742 113.609 33.0046 113.623 32.949 113.623Z" fill="#4C4D4E"/>
<path d="M26.3418 116.433C26.1471 116.433 25.9801 116.322 25.8967 116.141C25.7854 115.891 25.8967 115.612 26.1471 115.501C27.5105 114.903 29.0547 114.249 30.6129 113.595C30.8633 113.484 31.1416 113.609 31.2529 113.859C31.3642 114.11 31.239 114.388 30.9885 114.499C29.4304 115.153 27.9 115.821 26.5366 116.405C26.4671 116.419 26.3975 116.433 26.3418 116.433Z" fill="#4C4D4E"/>
<path d="M20.9291 118.881C20.7483 118.881 20.5813 118.784 20.4978 118.617C20.3726 118.38 20.47 118.088 20.7204 117.963C21.5273 117.56 22.9186 116.92 24.8524 116.071C25.1028 115.96 25.381 116.071 25.4923 116.321C25.6036 116.572 25.4923 116.85 25.2419 116.961C23.322 117.796 21.9586 118.436 21.1517 118.826C21.0682 118.867 20.9987 118.881 20.9291 118.881Z" fill="#4C4D4E"/>
</svg>
