<svg width="24" height="24" viewBox="0 0 24 24" fill="none" xmlns="http://www.w3.org/2000/svg">
<path d="M21.1428 13.1429V16.5715C21.1428 18.0566 17.5611 20 13.1428 20C8.72454 20 5.14282 18.0566 5.14282 16.5715C5.14282 16.0829 5.14282 15.1305 5.14282 13.7143" stroke="black" stroke-linecap="round" stroke-linejoin="round"/>
<path d="M5.47864 14.01C6.46698 15.3222 9.52434 16.5527 13.1428 16.5527C17.5611 16.5527 21.1428 14.7181 21.1428 13.1402C21.1428 12.2548 20.015 11.2843 18.2445 10.603" stroke="black" stroke-linecap="round" stroke-linejoin="round"/>
<path d="M17.7142 7.42859V10.8572C17.7142 12.3423 14.1325 14.2857 9.71423 14.2857C5.29596 14.2857 1.71423 12.3423 1.71423 10.8572C1.71423 10.1243 1.71423 8.16148 1.71423 7.42859" stroke="black" stroke-linecap="round" stroke-linejoin="round"/>
<path fill-rule="evenodd" clip-rule="evenodd" d="M9.71423 10.8384C14.1325 10.8384 17.7142 9.00388 17.7142 7.42592C17.7142 5.84796 14.1325 4 9.71423 4C5.29596 4 1.71423 5.84796 1.71423 7.42592C1.71423 9.00388 5.29596 10.8384 9.71423 10.8384Z" stroke="black" stroke-linecap="round" stroke-linejoin="round"/>
</svg>
