<svg width="24" height="24" viewBox="0 0 24 24" fill="none" xmlns="http://www.w3.org/2000/svg">
<path fill-rule="evenodd" clip-rule="evenodd" d="M4 10.8572C4 9.37202 7.58172 7.42859 12 7.42859C16.4183 7.42859 20 9.37202 20 10.8572V14.2857C20 15.7709 16.4183 17.7143 12 17.7143C7.58172 17.7143 4 15.7709 4 14.2857C4 13.5528 4 11.5901 4 10.8572Z" stroke="black" stroke-linecap="round" stroke-linejoin="round"/>
<path fill-rule="evenodd" clip-rule="evenodd" d="M12 14.267C16.4183 14.267 20 12.4325 20 10.8545C20 9.27655 16.4183 7.42859 12 7.42859C7.58172 7.42859 4 9.27655 4 10.8545C4 12.4325 7.58172 14.267 12 14.267Z" stroke="black" stroke-linecap="round" stroke-linejoin="round"/>
</svg>
