<svg width="24" height="24" viewBox="0 0 24 24" fill="none" xmlns="http://www.w3.org/2000/svg">
<path d="M12 13.1429C12.6312 13.1429 13.1429 12.6312 13.1429 12C13.1429 11.3688 12.6312 10.8571 12 10.8571C11.3689 10.8571 10.8572 11.3688 10.8572 12C10.8572 12.6312 11.3689 13.1429 12 13.1429Z" fill="black"/>
<path d="M12 7.42857C12.6312 7.42857 13.1429 6.91689 13.1429 6.28571C13.1429 5.65453 12.6312 5.14285 12 5.14285C11.3689 5.14285 10.8572 5.65453 10.8572 6.28571C10.8572 6.91689 11.3689 7.42857 12 7.42857Z" fill="black"/>
<path d="M12 18.8571C12.6312 18.8571 13.1429 18.3455 13.1429 17.7143C13.1429 17.0831 12.6312 16.5714 12 16.5714C11.3689 16.5714 10.8572 17.0831 10.8572 17.7143C10.8572 18.3455 11.3689 18.8571 12 18.8571Z" fill="black"/>
</svg>
