<svg width="24" height="24" viewBox="0 0 24 24" fill="none" xmlns="http://www.w3.org/2000/svg">
<path fill-rule="evenodd" clip-rule="evenodd" d="M18.8572 4C20.1195 4 21.1429 5.02335 21.1429 6.28571V17.7143C21.1429 18.9767 20.1195 20 18.8572 20L15.4297 19.9989L12.8082 22.6204C12.3962 23.0324 11.7479 23.0641 11.2996 22.7155L11.1919 22.6204L8.57032 19.9989L5.14289 20C3.88053 20 2.85718 18.9767 2.85718 17.7143V6.28571C2.85718 5.02335 3.88053 4 5.14289 4H18.8572Z" stroke="black" stroke-linecap="round" stroke-linejoin="round"/>
<path fill-rule="evenodd" clip-rule="evenodd" d="M11.9986 13.1428C12.57 13.1428 13.1415 12.5714 13.1415 12C13.1415 11.4285 12.57 10.8571 11.9986 10.8571C11.4272 10.8571 10.8571 11.4285 10.8571 12C10.8571 12.5714 11.4272 13.1428 11.9986 13.1428ZM7.42718 13.1428C7.9986 13.1428 8.57003 12.5714 8.57003 12C8.57003 11.4285 7.9986 10.8571 7.42718 10.8571C6.85575 10.8571 6.28564 11.4285 6.28564 12C6.28564 12.5714 6.85575 13.1428 7.42718 13.1428ZM16.57 13.1428C17.1415 13.1428 17.7129 12.5714 17.7129 12C17.7129 11.4285 17.1415 10.8571 16.57 10.8571C15.9986 10.8571 15.4285 11.4285 15.4285 12C15.4285 12.5714 15.9986 13.1428 16.57 13.1428Z" fill="black"/>
</svg>
