<svg width="24" height="24" viewBox="0 0 24 24" fill="none" xmlns="http://www.w3.org/2000/svg">
<path d="M17.7143 9.71431H20C20.6312 9.71431 21.1429 9.20264 21.1429 8.57145V6.28574C21.1429 5.65456 20.6312 5.14288 20 5.14288H4.00003C3.36885 5.14288 2.85718 5.65456 2.85718 6.28574V8.57145C2.85718 9.20264 3.36885 9.71431 4.00003 9.71431H6.28575" stroke="black" stroke-linecap="round" stroke-linejoin="round"/>
<path fill-rule="evenodd" clip-rule="evenodd" d="M6.28564 5.14288H17.7142V18.2857C17.7142 18.9169 17.2025 19.4286 16.5714 19.4286H7.4285C6.79732 19.4286 6.28564 18.9169 6.28564 18.2857V5.14288Z" stroke="black" stroke-linecap="round" stroke-linejoin="round"/>
<path d="M9.71436 13.1429L12.0001 15.4286L14.2858 13.1429" stroke="black" stroke-linecap="round" stroke-linejoin="round"/>
<path d="M12 15.4286V8.57147" stroke="black" stroke-linecap="round" stroke-linejoin="round"/>
</svg>
